<svg id="10015.io" viewBox="0 0 480 480" xmlns="http://www.w3.org/2000/svg" xmlns:xlink="http://www.w3.org/1999/xlink" >
	<path fill="#f2f4f3" d="M461,274Q449,308,435.5,340.5Q422,373,398.5,399.5Q375,426,343,442Q311,458,275.5,463.5Q240,469,203.5,467.5Q167,466,135,447.5Q103,429,82,399.5Q61,370,41,340.5Q21,311,21.5,275.5Q22,240,19,203.5Q16,167,38.5,138.5Q61,110,80.5,78.5Q100,47,136.5,40Q173,33,206.5,21Q240,9,276.5,12Q313,15,343.5,35.5Q374,56,402,79Q430,102,443,136Q456,170,464.5,205Q473,240,461,274Z" />
</svg>